# xmcd
# 
# Track frame offsets:
#     150
#     20635
#     38930
#     62305
#     88670
#     105535
#     124450
#     141037
#     167017
#     187222
#     204862
#     219240
# 
# Disc length: 3161
# 
# Revision: 5
# Processed by: cddbd v1.5.2PL0 Copyright (c) Steve Scherf et al.
# Submitted via: fre:ac v1.0.31
# 
DISCID=a60c570c
DTITLE=Howlin' Wolf - The London Howlin' Wolf Sessions Deluxe Edition Disc 2
DYEAR=1971
DGENRE=Blues
TTITLE0=Worried About My Baby (rehearsal)
TTITLE1=The Red Rooster (alt. mix)
TTITLE2=What a Woman! (alt)
TTITLE3=Who's Been Talking? (alt)
TTITLE4=Worried About My Baby (alt)
TTITLE5=I Ain't Superstitious (alt)
TTITLE6=Highway 49 (alt)
TTITLE7=Do the Do (alt)
TTITLE8=Poor Boy (alt. lyrics and mix)
TTITLE9=I Ain't Superstitious (alt. mix)
TTITLE10=What a Woman! (alt. mix)
TTITLE11=Rockin' Daddy (alt. mix)
EXTD=Howlin' Wolf [Chester Arthur Burnett, 1910/1976]: vocals, harmonica [CDI/tracks 4,8 - II/1,4,5), acoustic guitar (I/9), 2nd guitar (I/15]\nEric Clapton: lead guitar\nHubert Sumlin: guitar\nJeffery M. Carp: harmonica\nBill Wyman: bass guitar, shaker
EXTD=, cowbell\nCharlie Watts: drums, conga, percussion\nSteve Winwood (I/1-13 - II/9-12): piano, organ\nIan Stewart (I/1,7,11,13 - II/1,3,4,7,8,10,12): piano\nRingo Starr [credited as "Richie"] (I/2 - II/6): drums\nKlaus Voorman (I/2 - II/6): bass\nJohn Simo
EXTD=n (I/8): piano\nPhil Upchurch (I/1 - II/12): bass\nLafayette Leake (I/3,4,10 - II/2): piano\nJoe Miller, Jordan Sandke, Dennis Lansing: horns (I/2,7 - II/6]\nPrincipally recorded by Glyn Johns at Olympic Sound Studios, London GB, 1970-05-02/07.\nProduce
EXTD=d by Norman Dayron.\nDisc I/tracks 1-13 originally issued as Chess CH-60008 (Summer 1971).\nTracks I/14-16 originally issued on "London Revisited", Chess LP 60026 (1974-02).\nDisc II previously unissued.\nDeluxe Edition supervised by Andy McKaie.\nRe
EXTD=mastered by Erick Labson at Universal Mastering Studios-West, North Hollywood US-CA.\n2CD: MCA/Chess 12985 (2003-03-04), UPC 008811298524.
EXTT0=(Chester Burnett)
EXTT1=(Willie Dixon)
EXTT2=(James Burke Oden]\nAKA "Commit a Crime".
EXTT3=(Chester Burnett)
EXTT4=(Chester Burnett)
EXTT5=(Willie Dixon)
EXTT6=(Big Joe Williams)
EXTT7=(Willie Dixon)
EXTT8=(Chester Burnett)
EXTT9=(Willie Dixon)
EXTT10=(James Burke Oden]\nAKA "Commit a Crime".
EXTT11=(Chester Burnett)
PLAYORDER=
